<?xml version="1.0" encoding="UTF-8"?>
<!-- Generator: Adobe Illustrator 16.0.0, SVG Export Plug-In . SVG Version: 6.00 Build 0)  -->
<!DOCTYPE svg PUBLIC "-//W3C//DTD SVG 1.1//EN" "http://www.w3.org/Graphics/SVG/1.1/DTD/svg11.dtd">
<svg version="1.1" id="Layer_1" xmlns="http://www.w3.org/2000/svg" xmlns:xlink="http://www.w3.org/1999/xlink" x="0px" y="0px" width="154.273px" height="40.948px" viewBox="0 0 154.273 40.948" enable-background="new 0 0 154.273 40.948" xml:space="preserve">
<path fill="#FFFFFF" d="M142.669,33.67c-0.45-0.143-0.88,0.142-0.947,0.405c-0.582,2.162-1.322,3.37-3.059,3.233  c-3.209-0.415-3.038-7.185-3.038-10.181c0-11.284,0.344-24.965,0.344-25.5c0-0.454-0.501-0.785-2.415-1.258  c-1.135-0.279-1.752-0.38-2.053-0.38c-0.649,0-1.251,0.531-1.251,1.197v14.858c-1.43-1.572-3.313-2.554-5.655-2.583  c-11.547-0.145-13.373,25.551-1.736,27.15c3.958,0.543,6.845-1.53,8.634-4.739c1.356,3.518,3.511,4.541,4.986,4.841  c1.051,0.21,4.577-0.139,6.275-3.699C143.363,35.748,143.688,33.999,142.669,33.67 M125.741,37.33  c-7.692,0-5.947-19.635,0.184-19.555c2.599,0.034,4.178,3.329,4.326,7.641C130.485,32.408,129.438,37.33,125.741,37.33   M111.63,13.487c-4.659,0.745-6.658,7.2-6.658,8.063v-5.624c0-0.452-0.502-0.782-2.411-1.255c-1.14-0.279-1.759-0.383-2.056-0.383  c-0.646,0-1.255,0.534-1.255,1.198v13.398c-0.018,0.22-0.038,0.438-0.058,0.663c-0.349,3.84-0.695,7.683-3.211,7.683  c-3.333,0-2.332-6.984-2.289-9.981c0.138-9.277,0.342-11.343,0.342-11.363c0-0.453-0.5-0.784-2.413-1.256  c-1.136-0.281-1.755-0.384-2.055-0.384c-0.646,0-1.251,0.534-1.251,1.198v0.896c-1.472-1.746-3.449-2.849-5.937-2.88  c-7.98-0.1-11.32,12.166-8.771,20.268c-0.38,2.146-1.157,3.738-3.197,3.58c-3.208-0.415-3.037-7.185-3.037-10.181  c0-11.284,0.343-25.478,0.343-25.5c0-0.454-0.502-0.785-2.415-1.258c-1.135-0.279-1.756-0.38-2.053-0.38  c-0.649,0-1.254,0.531-1.254,1.197v24.641c-0.078,2.455,0.036,4.516,0.284,6.245c-0.521,2.956-1.604,5.394-3.767,5.235  c-3.208-0.415-3.036-7.185-3.036-10.181c0-11.284,0.342-25.478,0.342-25.5c0-0.454-0.501-0.785-2.414-1.258  c-1.137-0.279-1.757-0.38-2.056-0.38c-0.646,0-1.253,0.531-1.253,1.197v24.983c-0.374,11.995,3.779,14.22,6.216,14.528  c1.224,0.153,5.456-0.219,6.813-5.048c1.336,3.808,3.559,4.917,5.102,5.063c0.991,0.093,4.952-0.208,6.539-4.306  c1.3,2.253,3.242,3.85,5.882,4.204c3.847,0.514,6.683-1.365,8.495-4.341c0.938,3.18,2.53,4.087,4.222,4.427  c1.264,0.252,4.161,0.019,5.886-2.789v1.377c0,0.455,0.178,0.785,2.089,1.259c1.135,0.279,2.097,0.381,2.393,0.381  c0.652,0,1.24-0.532,1.24-1.196v-6.857c0-2.922,1.853-13.636,6.421-13.969c0.291-0.02,0.935,0.031,1.388,0.187  C116.393,20.334,116.32,12.737,111.63,13.487 M83.527,37.33c-7.688-0.136-5.949-19.635,0.183-19.555  c2.946,0.038,4.354,4.275,4.399,9.404C88.15,32.22,87.172,37.392,83.527,37.33 M38.109,13.458  c-11.544-0.145-13.375,25.278-1.733,27.15C50.883,42.935,52.007,13.63,38.109,13.458 M39.254,37.322  c-7.687-0.147-5.59-18.905,0.187-19.556C45.9,17.041,46.797,37.463,39.254,37.322 M23.548,0.371c-1.135-0.279-1.753-0.38-2.051-0.38  c-0.648,0-1.253,0.531-1.253,1.197v16.207c-3.563-0.098-6.734,0.035-10.287,0.54c0,0-0.017-16.143-0.017-16.307  c0-0.454-0.503-0.785-2.416-1.258c-1.138-0.279-1.757-0.38-2.053-0.38c-0.649,0-1.253,0.531-1.253,1.197v17.857  c-0.388,0.091-2.211,0.484-3.232,0.814c-1.019,0.332-1.162,1.083-0.82,2.115c0.548,1.672,2.389,3.663,3.485,3.205  c0.271-0.108,0.571-0.193,0.571-0.193c0.011,4.354,0.021,7.438,0.021,7.438l0.005,6.868c0,0.456,0.162,0.787,2.075,1.257  c1.137,0.281,2.096,0.383,2.394,0.383c0.647,0,1.24-0.532,1.24-1.198V23.292c4.283-0.989,7.59-1.255,10.287-1.453v17.454  c0,0.456,0.177,0.79,2.09,1.262c1.133,0.279,2.096,0.384,2.395,0.384c0.646,0,1.236-0.535,1.236-1.2V1.628  C25.965,1.174,25.464,0.843,23.548,0.371"/>
<path fill="#F05B24" d="M150.952,31.739c-2.222-0.385-4.367,1.48-4.786,3.896c-0.421,2.418,1.038,4.688,3.262,5.075  c2.214,0.38,4.354-1.268,4.774-3.686C154.619,34.612,153.167,32.126,150.952,31.739"/>
</svg>